# xmcd CD database file
#
# Track frame offsets:
#	150
#	15837
#	29974
#	42719
#	58158
#	73296
#	89815
#	108270
#	121478
#	136654
#	149908
#
# Disc length: 2188 seconds
#
# Revision: 1
# Processed by: cddbd v1.5.2PL0 Copyright (c) Steve Scherf et al.
# Submitted via: CDex 1.79
#
DISCID=b0088a0b
DTITLE=Montgomery Gentry - Rebels On The Run
DYEAR=2011
DGENRE=Country
TTITLE0=Damn Right I Am
TTITLE1=Ain't No Law Against That
TTITLE2=Damn Baby
TTITLE3=Empty
TTITLE4=Where I Come From
TTITLE5=I Like Those People (featzuring Charlie Daniels and Randy Owen)
TTITLE6=Rebels On The Run
TTITLE7=Simple Things
TTITLE8=Missing You
TTITLE9=So Called Life
TTITLE10=Work Hard, Play Harder
EXTD=YEAR: 2011
EXTT0=
EXTT1=
EXTT2=
EXTT3=
EXTT4=
EXTT5=
EXTT6=
EXTT7=
EXTT8=
EXTT9=
EXTT10=
PLAYORDER=
